<svg viewBox="0 0 600 800" xmlns="http://www.w3.org/2000/svg">
  <defs>
    <!-- Professional gradient scheme -->
    <linearGradient id="primaryGrad" x1="0%" y1="0%" x2="100%" y2="100%">
      <stop offset="0%" style="stop-color:#00d4ff;stop-opacity:0.9"/>
      <stop offset="50%" style="stop-color:#0099cc;stop-opacity:0.7"/>
      <stop offset="100%" style="stop-color:#006699;stop-opacity:0.5"/>
    </linearGradient>
    
    <linearGradient id="accentGrad" x1="0%" y1="0%" x2="100%" y2="100%">
      <stop offset="0%" style="stop-color:#4dd0e1;stop-opacity:0.8"/>
      <stop offset="100%" style="stop-color:#26c6da;stop-opacity:0.6"/>
    </linearGradient>
    
    <linearGradient id="subtleGrad" x1="0%" y1="0%" x2="100%" y2="100%">
      <stop offset="0%" style="stop-color:#00bcd4;stop-opacity:0.3"/>
      <stop offset="100%" style="stop-color:#00acc1;stop-opacity:0.1"/>
    </linearGradient>

    <!-- Professional glow effects -->
    <filter id="professionalGlow" x="-50%" y="-50%" width="200%" height="200%">
      <feGaussianBlur stdDeviation="4" result="coloredBlur"/>
      <feMerge> 
        <feMergeNode in="coloredBlur"/>
        <feMergeNode in="SourceGraphic"/>
      </feMerge>
    </filter>
    
    <filter id="subtleGlow" x="-30%" y="-30%" width="160%" height="160%">
      <feGaussianBlur stdDeviation="2" result="coloredBlur"/>
      <feMerge> 
        <feMergeNode in="coloredBlur"/>
        <feMergeNode in="SourceGraphic"/>
      </feMerge>
    </filter>

    <!-- Mask for clean geometric cuts -->
    <mask id="hexMask">
      <rect width="100%" height="100%" fill="black"/>
      <polygon points="300,150 350,180 350,240 300,270 250,240 250,180" fill="white"/>
    </mask>
  </defs>

  <!-- Clean background -->
  <rect width="600" height="800" fill="url(#subtleGrad)" opacity="0.05"/>
  
  <!-- Main architectural element - Large hexagonal framework -->
  <g opacity="0.8">
    <polygon points="300,150 350,180 350,240 300,270 250,240 250,180" 
             fill="none" 
             stroke="url(#primaryGrad)" 
             stroke-width="3"
             filter="url(#professionalGlow)">
      <animateTransform attributeName="transform" 
                        attributeType="XML" 
                        type="rotate" 
                        from="0 300 210" 
                        to="360 300 210" 
                        dur="30s" 
                        repeatCount="indefinite"/>
    </polygon>
    
    <!-- Inner hexagonal structure -->
    <polygon points="300,170 330,190 330,230 300,250 270,230 270,190" 
             fill="url(#accentGrad)" 
             opacity="0.4"
             filter="url(#subtleGlow)"/>
  </g>
  
  <!-- Professional grid system -->
  <g opacity="0.3" stroke="url(#primaryGrad)" stroke-width="1" fill="none">
    <line x1="100" y1="400" x2="500" y2="400"/>
    <line x1="100" y1="450" x2="500" y2="450"/>
    <line x1="100" y1="500" x2="500" y2="500"/>
    <line x1="200" y1="350" x2="200" y2="550"/>
    <line x1="300" y1="350" x2="300" y2="550"/>
    <line x1="400" y1="350" x2="400" y2="550"/>
  </g>
  
  <!-- Code structure visualization -->
  <g transform="translate(80, 420)">
    <!-- Function blocks -->
    <rect x="0" y="0" width="120" height="12" fill="url(#primaryGrad)" opacity="0.7" rx="2"/>
    <rect x="20" y="20" width="80" height="8" fill="url(#accentGrad)" opacity="0.6" rx="2"/>
    <rect x="40" y="35" width="60" height="8" fill="url(#primaryGrad)" opacity="0.5" rx="2"/>
    <rect x="20" y="50" width="90" height="8" fill="url(#accentGrad)" opacity="0.6" rx="2"/>
    <rect x="0" y="65" width="100" height="8" fill="url(#primaryGrad)" opacity="0.5" rx="2"/>
  </g>
  
  <g transform="translate(350, 450)">
    <rect x="0" y="0" width="140" height="12" fill="url(#accentGrad)" opacity="0.7" rx="2"/>
    <rect x="20" y="20" width="100" height="8" fill="url(#primaryGrad)" opacity="0.6" rx="2"/>
    <rect x="40" y="35" width="70" height="8" fill="url(#accentGrad)" opacity="0.5" rx="2"/>
    <rect x="20" y="50" width="110" height="8" fill="url(#primaryGrad)" opacity="0.6" rx="2"/>
  </g>
  
  <!-- React component symbols -->
  <g transform="translate(450, 200)">
    <circle cx="0" cy="0" r="25" fill="none" stroke="url(#primaryGrad)" stroke-width="2" opacity="0.6"/>
    <circle cx="0" cy="0" r="15" fill="none" stroke="url(#accentGrad)" stroke-width="2" opacity="0.7"/>
    <circle cx="0" cy="0" r="3" fill="url(#primaryGrad)" opacity="0.8"/>
    <animateTransform attributeName="transform" 
                      attributeType="XML" 
                      type="rotate" 
                      from="0 450 200" 
                      to="360 450 200" 
                      dur="20s" 
                      repeatCount="indefinite"/>
  </g>
  
  <!-- Data flow connections -->
  <g opacity="0.4">
    <path d="M200,400 Q300,350 400,400" 
          stroke="url(#primaryGrad)" 
          stroke-width="2" 
          fill="none"
          stroke-dasharray="8,4">
      <animate attributeName="stroke-dashoffset" values="0;-12" dur="4s" repeatCount="indefinite"/>
    </path>
    
    <path d="M250,500 Q350,480 450,500" 
          stroke="url(#accentGrad)" 
          stroke-width="2" 
          fill="none"
          stroke-dasharray="6,6">
      <animate attributeName="stroke-dashoffset" values="0;-12" dur="3s" repeatCount="indefinite"/>
    </path>
  </g>
  
  <!-- Floating elements for depth -->
  <circle cx="150" cy="300" r="8" fill="url(#primaryGrad)" opacity="0.6" filter="url(#subtleGlow)">
    <animate attributeName="cy" values="300;290;300" dur="6s" repeatCount="indefinite"/>
    <animate attributeName="opacity" values="0.6;0.3;0.6" dur="4s" repeatCount="indefinite"/>
  </circle>
  
  <circle cx="480" cy="350" r="6" fill="url(#accentGrad)" opacity="0.7">
    <animate attributeName="cx" values="480;490;480" dur="7s" repeatCount="indefinite"/>
    <animate attributeName="opacity" values="0.7;0.4;0.7" dur="5s" repeatCount="indefinite"/>
  </circle>
  
  <!-- Terminal/Console representation -->
  <g transform="translate(100, 600)">
    <rect x="0" y="0" width="400" height="120" fill="none" stroke="url(#primaryGrad)" stroke-width="2" opacity="0.4" rx="8"/>
    <circle cx="20" cy="20" r="4" fill="url(#accentGrad)" opacity="0.6"/>
    <circle cx="40" cy="20" r="4" fill="url(#primaryGrad)" opacity="0.5"/>
    <circle cx="60" cy="20" r="4" fill="url(#accentGrad)" opacity="0.4"/>
    
    <!-- Command lines -->
    <rect x="20" y="40" width="100" height="3" fill="url(#primaryGrad)" opacity="0.5" rx="1"/>
    <rect x="20" y="55" width="80" height="3" fill="url(#accentGrad)" opacity="0.4" rx="1"/>
    <rect x="20" y="70" width="120" height="3" fill="url(#primaryGrad)" opacity="0.5" rx="1"/>
    <rect x="20" y="85" width="60" height="3" fill="url(#accentGrad)" opacity="0.4" rx="1"/>
  </g>
  
  <!-- Subtle background shapes for composition -->
  <polygon points="50,100 100,120 80,180 30,160" 
           fill="url(#subtleGrad)" 
           opacity="0.2">
    <animateTransform attributeName="transform" 
                      attributeType="XML" 
                      type="scale" 
                      values="1;1.02;1" 
                      dur="12s" 
                      repeatCount="indefinite"/>
  </polygon>
  
  <polygon points="520,120 570,140 550,200 500,180" 
           fill="url(#subtleGrad)" 
           opacity="0.15">
    <animateTransform attributeName="transform" 
                      attributeType="XML" 
                      type="scale" 
                      values="1;0.98;1" 
                      dur="15s" 
                      repeatCount="indefinite"/>
  </polygon>
  
  <!-- Status indicators -->
  <g transform="translate(50, 50)">
    <circle cx="0" cy="0" r="4" fill="#00d4ff">
      <animate attributeName="opacity" values="1;0.3;1" dur="2s" repeatCount="indefinite"/>
    </circle>
    <circle cx="20" cy="0" r="4" fill="#4dd0e1">
      <animate attributeName="opacity" values="0.3;1;0.3" dur="2s" repeatCount="indefinite"/>
    </circle>
    <circle cx="40" cy="0" r="4" fill="#26c6da">
      <animate attributeName="opacity" values="1;0.5;1" dur="3s" repeatCount="indefinite"/>
    </circle>
  </g>
</svg>